PathFileType	4	(X/Y/Z)	TVC_39_BWA_03_walk_RCNL2025.trc
DataRate	CameraRate	NumFrames	NumMarkers	Units	OrigDataRate	OrigDataStartFrame	OrigNumFrames
100	100	7	27	mm	100	295	1176
Frame#	Time	R_Shoulder			L_Shoulder			C7			J_Notch			R_Elbow			L_Elbow			R_Wrist			L_Wrist			R_Asis			L_Asis			R_Psis			L_Psis			Sacral			Thoracic			Sternum			R_Thigh_Lateral			R_Knee_Lateral			R_Shank_Lateral			R_Ankle_Lateral			R_Heel			R_Toe			L_Thigh_Lateral			L_Knee_Lateral			L_Shank_Lateral			L_Ankle_Lateral			L_Heel			L_Toe		
		X1	Y1	Z1	X2	Y2	Z2	X3	Y3	Z3	X4	Y4	Z4	X5	Y5	Z5	X6	Y6	Z6	X7	Y7	Z7	X8	Y8	Z8	X9	Y9	Z9	X10	Y10	Z10	X11	Y11	Z11	X12	Y12	Z12	X13	Y13	Z13	X14	Y14	Z14	X15	Y15	Z15	X16	Y16	Z16	X17	Y17	Z17	X18	Y18	Z18	X19	Y19	Z19	X20	Y20	Z20	X21	Y21	Z21	X22	Y22	Z22	X23	Y23	Z23	X24	Y24	Z24	X25	Y25	Z25	X26	Y26	Z26	X27	Y27	Z27
295	2.94000000	-242.255310	1455.081299	133.755157	-233.335159	1482.839600	-234.779724	-274.506439	1534.319946	-51.194546	-125.597305	1409.987915	-58.376083	-212.083328	1137.453735	245.561798	-311.936066	1174.797852	-355.424164	-90.340904	912.999207	221.304787	-213.950089	931.387970	-336.140289	-166.557602	934.778564	62.970650	-171.125229	928.600220	-231.413528	-366.575928	958.885986	-23.399746	-370.700836	949.939941	-130.379654	-368.638382	954.412964	-76.889700	-365.258545	1207.541748	-78.124496	-81.420631	1249.083252	-56.782921	-185.481705	739.677856	148.847916	-142.142853	477.959351	80.265816	-210.944595	300.370270	140.368591	-239.350098	77.687286	43.476456	-281.114563	63.004292	-11.037364	-96.166618	46.846592	55.760235	-243.359924	669.342468	-295.177063	-239.726273	445.889832	-212.383911	-317.912537	322.979919	-266.574066	-417.738464	79.875954	-174.777466	-464.800293	71.573174	-118.358543	-283.659668	42.218956	-188.107346
296	2.95000000	-239.994232	1454.866821	135.045090	-230.143661	1483.021729	-233.414978	-271.704224	1534.361450	-49.870014	-122.926521	1409.843018	-56.818615	-209.522308	1137.158081	246.589539	-308.546265	1175.303345	-354.997528	-86.854012	913.245605	221.984573	-210.787605	931.867554	-335.702957	-164.811569	934.585083	63.714893	-168.781677	928.622375	-230.652771	-364.662994	959.013062	-23.090128	-368.500214	950.051453	-130.111069	-366.581604	954.532257	-76.600598	-362.718445	1207.693726	-77.618408	-78.951195	1248.889038	-55.317535	-183.591949	739.552673	149.122208	-141.009232	477.622864	80.402855	-210.215912	300.156830	140.425705	-239.263428	77.635658	43.404980	-281.053833	63.004551	-11.092994	-96.169937	46.853718	55.762989	-241.193176	669.379639	-294.822876	-237.892395	445.840759	-212.315826	-316.524628	323.318115	-266.560242	-417.506042	80.591698	-174.975632	-464.617371	72.534073	-118.612610	-283.482880	42.350239	-188.326172
297	2.96000000	-237.752106	1454.705933	136.352371	-226.992188	1483.286621	-232.013718	-268.911224	1534.450806	-48.524334	-120.273346	1409.746948	-55.242477	-207.035553	1136.913818	247.629654	-305.241760	1175.889771	-354.515686	-83.475800	913.535919	222.581978	-207.682533	932.431946	-335.274887	-163.103409	934.445862	64.431000	-166.456070	928.715759	-229.902100	-362.784241	959.210022	-22.828754	-366.314148	950.233643	-129.895203	-364.549194	954.721832	-76.361979	-360.208618	1207.899902	-77.096428	-76.504112	1248.741577	-53.840454	-181.833237	739.492737	149.348465	-140.128738	477.342896	80.501785	-209.682053	299.974182	140.472549	-239.206314	77.583435	43.341541	-281.011475	62.988369	-11.142167	-96.182083	46.859421	55.766090	-239.005386	669.502441	-294.492065	-236.019653	445.851898	-212.285812	-315.154907	323.743286	-266.543793	-417.239716	81.384384	-175.126312	-464.381653	73.593887	-118.793015	-283.246124	42.505070	-188.512146
298	2.97000000	-235.527512	1454.595337	137.678101	-223.878418	1483.640015	-230.572662	-266.127319	1534.586548	-47.154598	-117.636940	1409.699585	-53.647594	-204.621414	1136.719360	248.684219	-302.028809	1176.569946	-353.979614	-80.209332	913.866119	223.102669	-204.639709	933.092255	-334.851288	-161.431366	934.360901	65.119476	-164.152039	928.879333	-229.160370	-360.938171	959.477661	-22.611998	-364.144409	950.487061	-129.728088	-362.541290	954.982361	-76.170043	-357.730164	1208.159180	-76.556587	-74.078033	1248.640503	-52.354088	-180.229523	739.484863	149.534760	-139.495621	477.121826	80.568733	-209.341019	299.825806	140.510712	-239.178558	77.531860	43.286758	-280.987885	62.957741	-11.184801	-96.202324	46.863049	55.769535	-236.777756	669.709534	-294.189178	-234.075211	445.919312	-212.307419	-313.778534	324.253967	-266.527771	-416.932190	82.264954	-175.228043	-464.084442	74.765762	-118.895729	-282.950989	42.673416	-188.658478
299	2.98000000	-233.319000	1454.530762	139.022812	-220.798920	1484.085693	-229.089233	-263.351898	1534.765991	-45.758621	-115.016159	1409.699097	-52.034222	-202.278381	1136.572021	249.754990	-298.912140	1177.354858	-353.391998	-77.056618	914.231415	223.553268	-201.663292	933.857788	-334.427765	-159.793732	934.328430	65.781090	-161.874161	929.110413	-228.426559	-359.123627	959.815063	-22.435131	-361.993805	950.810791	-129.604614	-360.558716	955.312927	-76.019873	-355.284180	1208.469727	-75.997070	-71.671600	1248.583740	-50.860981	-178.796722	739.515625	149.687714	-139.099228	476.960175	80.610046	-209.186920	299.713745	140.541611	-239.179123	77.481941	43.240940	-280.983002	62.914749	-11.221192	-96.229935	46.864124	55.773682	-234.489929	669.994629	-293.921143	-232.020126	446.038116	-212.396729	-312.363312	324.847382	-266.519043	-416.575287	83.245598	-175.285278	-463.717987	76.064140	-118.924995	-282.601074	42.842667	-188.761108
300	2.99000000	-231.125031	1454.506592	140.386475	-217.749344	1484.624878	-227.561569	-260.583984	1534.985474	-44.334984	-112.409630	1409.742432	-50.403004	-200.005066	1136.467529	250.843399	-295.894897	1178.253296	-352.756775	-74.018715	914.625977	223.941238	-198.756706	934.735687	-334.000366	-158.188965	934.344543	66.416786	-159.627853	929.404846	-227.699875	-357.339752	960.219666	-22.292437	-359.865784	951.201965	-129.518738	-358.602768	955.710815	-75.905587	-352.871887	1208.828735	-75.416229	-69.283508	1248.567871	-49.363819	-177.543640	739.572266	149.813110	-138.924164	476.856720	80.632133	-209.210098	299.638428	140.566498	-239.206253	77.434418	43.204041	-280.996033	62.861439	-11.251961	-96.264389	46.862366	55.779240	-232.121582	670.347839	-293.697479	-229.810364	446.202911	-212.572311	-310.871155	325.520203	-266.528534	-416.160126	84.340019	-175.308746	-463.275238	77.505226	-118.893387	-282.202332	42.998302	-188.819366
301	3.00000000	-228.943893	1454.516113	141.768494	-214.724808	1485.256836	-225.988663	-257.822357	1535.240112	-42.883064	-109.815765	1409.824951	-48.755024	-197.800278	1136.400146	251.950623	-292.978912	1179.271606	-352.078888	-71.095764	915.043121	224.274796	-195.922531	935.730499	-333.565857	-156.615540	934.403320	67.027611	-157.419220	929.757202	-226.979828	-355.585968	960.687134	-22.177343	-357.764557	951.656372	-129.463577	-356.675262	956.171753	-75.820460	-350.494415	1209.232178	-74.812561	-66.912537	1248.587524	-47.865414	-176.473450	739.643372	149.916656	-138.950653	476.808380	80.641335	-209.397018	299.598419	140.586594	-239.257507	77.389709	43.175682	-281.025848	62.799732	-11.277940	-96.305473	46.857681	55.787266	-229.654114	670.756775	-293.529327	-227.398071	446.408722	-212.854950	-309.259583	326.269592	-266.571411	-415.676788	85.563950	-175.315491	-462.749237	79.107742	-118.821335	-281.762787	43.125072	-188.836273
